<svg viewBox="0 0 28 28" xmlns="http://www.w3.org/2000/svg" xmlns:xlink="http://www.w3.org/1999/xlink" width="28.000000" height="28.000000" fill="none" customFrame="#000000">
	<defs>
		<filter id="pixso_custom_mask_type_outline">
			<feColorMatrix type="matrix" values="0 0 0 0 1 0 0 0 0 1 0 0 0 0 1 0 0 0 1 0 " />
		</filter>
		<clipPath id="clipPath_2">
			<rect width="24.266666" height="24.266666" x="1.866699" y="1.866699" fill="rgb(255,255,255)" />
		</clipPath>
	</defs>
	<mask id="mask_2" width="8.400002" height="16.799999" x="10.266663" y="5.600098" maskUnits="userSpaceOnUse">
		<g filter="url(#pixso_custom_mask_type_outline)">
			<path id="Icon" d="M15.7189 22.4001L15.7189 14.7366L18.1983 14.7366L18.5667 11.7517L15.7189 11.7517L15.7189 9.8439C15.7189 8.98086 15.9499 8.39036 17.1428 8.39036L18.6667 8.39036L18.6667 5.7169C18.4044 5.67797 17.4988 5.6001 16.4496 5.6001C14.2512 5.6001 12.7523 6.99523 12.7523 9.55189L12.7523 11.7582L10.2667 11.7582L10.2667 14.7431L12.7523 14.7431L12.7523 22.4001L15.7189 22.4001Z" fill="rgb(255,255,255)" fill-rule="evenodd" />
		</g>
	</mask>
	<rect id="3. Icons/ic_facebook" width="28.000000" height="28.000000" x="0.000000" y="0.000000" fill="rgb(255,255,255)" fill-opacity="0" />
	<g mask="url(#mask_2)">
		<g id="5. Colors/Gray 70" customFrame="url(#clipPath_2)">
			<rect id="5. Colors/Gray 70" width="24.266666" height="24.266666" x="1.866699" y="1.866699" fill="rgb(255,255,255)" fill-opacity="0" />
			<rect id="Gray 70" width="24.266666" height="24.266666" x="1.866699" y="1.866699" fill="rgb(114.75,114.75,114.75)" />
		</g>
	</g>
</svg>
