<svg viewBox="0 0 28 28" xmlns="http://www.w3.org/2000/svg" xmlns:xlink="http://www.w3.org/1999/xlink" width="28.000000" height="28.000000" fill="none" customFrame="#000000">
	<defs>
		<filter id="pixso_custom_mask_type_outline">
			<feColorMatrix type="matrix" values="0 0 0 0 1 0 0 0 0 1 0 0 0 0 1 0 0 0 1 0 " />
		</filter>
		<clipPath id="clipPath_1">
			<rect width="24.266666" height="24.266666" x="1.866699" y="1.866699" fill="rgb(255,255,255)" />
		</clipPath>
	</defs>
	<mask id="mask_1" width="14.933334" height="14.933334" x="6.533325" y="6.533203" maskUnits="userSpaceOnUse">
		<g filter="url(#pixso_custom_mask_type_outline)">
			<path id="Icon" d="M21.0743 9.10672C20.8839 8.61625 20.63 8.2008 20.2145 7.78534C19.7991 7.36989 19.3836 7.116 18.8931 6.92558C18.42 6.74093 17.8718 6.61399 17.0813 6.57936C16.285 6.54474 16.0311 6.5332 14 6.5332C11.9689 6.5332 11.715 6.53897 10.9187 6.57936C10.1224 6.61399 9.58 6.74093 9.10684 6.92558C8.61637 7.116 8.20092 7.36989 7.78546 7.78534C7.37001 8.2008 7.11612 8.61625 6.9257 9.10672C6.74105 9.57988 6.61411 10.1281 6.57949 10.9186C6.54487 11.7149 6.53333 11.9688 6.53333 13.9999C6.53333 16.031 6.5391 16.2849 6.57949 17.0812C6.61411 17.8775 6.74105 18.4199 6.9257 18.893C7.11612 19.3835 7.37001 19.7989 7.78546 20.2144C8.20092 20.6299 8.61637 20.8837 9.10684 21.0742C9.58 21.2588 10.1282 21.3858 10.9187 21.4204C11.715 21.455 11.9689 21.4665 14 21.4665C16.0311 21.4665 16.285 21.4608 17.0813 21.4204C17.8776 21.3858 18.42 21.2588 18.8931 21.0742C19.3836 20.8837 19.7991 20.6299 20.2145 20.2144C20.63 19.7989 20.8839 19.3835 21.0743 18.893C21.2589 18.4199 21.3859 17.8717 21.4205 17.0812C21.4551 16.2849 21.4667 16.031 21.4667 13.9999C21.4667 11.9688 21.4609 11.7149 21.4205 10.9186C21.3859 10.1223 21.2589 9.57988 21.0743 9.10672ZM19.3205 18.0232C19.4154 17.7859 19.5262 17.4221 19.5578 16.7577C19.5894 16.0405 19.6 15.8191 19.6 13.9999C19.6 12.1807 19.5894 11.9645 19.5578 11.2421C19.5262 10.5776 19.4154 10.2191 19.3205 9.97652C19.194 9.65486 19.0463 9.42812 18.809 9.19083C18.5717 8.95354 18.3397 8.80062 18.0233 8.67934C17.7861 8.58443 17.4222 8.47369 16.7578 8.44205C16.0407 8.40514 15.8192 8.39987 14 8.39987C12.1808 8.39987 11.9646 8.41042 11.2422 8.44205C10.5778 8.47369 10.2192 8.58443 9.97664 8.67934C9.65498 8.8059 9.42824 8.95354 9.19095 9.19083C8.95366 9.42812 8.80075 9.66013 8.67947 9.97652C8.58455 10.2138 8.47382 10.5776 8.44218 11.2421C8.40527 11.9592 8.39999 12.1807 8.39999 13.9999C8.39999 15.8191 8.41054 16.0353 8.44218 16.7577C8.47382 17.4221 8.58455 17.7807 8.67947 18.0232C8.80602 18.3449 8.95366 18.5716 9.19095 18.8089C9.42824 19.0462 9.66026 19.1991 9.97664 19.3204C10.2139 19.4153 10.5778 19.526 11.2422 19.5577C11.9593 19.5946 12.1755 19.5999 14 19.5999C15.8245 19.5999 16.0354 19.5893 16.7578 19.5577C17.4222 19.526 17.7808 19.4153 18.0233 19.3204C18.345 19.1938 18.5717 19.0462 18.809 18.8089C19.0463 18.5716 19.1992 18.3396 19.3205 18.0232ZM17.7333 11.1999C18.2488 11.1999 18.6667 10.782 18.6667 10.2665C18.6667 9.75107 18.2488 9.3332 17.7333 9.3332C17.2179 9.3332 16.8 9.75107 16.8 10.2665C16.8 10.782 17.2179 11.1999 17.7333 11.1999ZM10.2667 13.9999C10.2667 11.9395 11.9396 10.2665 14 10.2665C16.0603 10.2665 17.7333 11.9395 17.7333 13.9999C17.7333 16.0602 16.0603 17.7332 14 17.7332C11.9396 17.7332 10.2667 16.0602 10.2667 13.9999ZM12.1333 13.9999C12.1333 15.0326 12.9716 15.8665 14 15.8665C15.0284 15.8665 15.8667 15.0283 15.8667 13.9999C15.8667 12.9672 15.0327 12.1332 14 12.1332C12.9673 12.1332 12.1333 12.9715 12.1333 13.9999Z" fill="rgb(255,255,255)" fill-rule="evenodd" />
		</g>
	</mask>
	<rect id="3. Icons/ic_instagram" width="28.000000" height="28.000000" x="0.000000" y="0.000000" fill="rgb(255,255,255)" fill-opacity="0" />
	<g mask="url(#mask_1)">
		<g id="5. Colors/Gray 70" customFrame="url(#clipPath_1)">
			<rect id="5. Colors/Gray 70" width="24.266666" height="24.266666" x="1.866699" y="1.866699" fill="rgb(255,255,255)" fill-opacity="0" />
			<rect id="Gray 70" width="24.266666" height="24.266666" x="1.866699" y="1.866699" fill="rgb(114.75,114.75,114.75)" />
		</g>
	</g>
</svg>
