<svg viewBox="0 0 28 28" xmlns="http://www.w3.org/2000/svg" xmlns:xlink="http://www.w3.org/1999/xlink" width="28.000000" height="28.000000" fill="none" customFrame="#000000">
	<defs>
		<filter id="pixso_custom_mask_type_outline">
			<feColorMatrix type="matrix" values="0 0 0 0 1 0 0 0 0 1 0 0 0 0 1 0 0 0 1 0 " />
		</filter>
		<clipPath id="clipPath_0">
			<rect width="24.266666" height="24.266666" x="1.866669" y="1.866699" fill="rgb(255,255,255)" />
		</clipPath>
	</defs>
	<mask id="mask_0" width="16.799999" height="14.000000" x="5.600006" y="7.466797" maskUnits="userSpaceOnUse">
		<g filter="url(#pixso_custom_mask_type_outline)">
			<path id="Icon" d="M22.4 9.12364C21.7819 9.40526 21.1182 9.59534 20.4203 9.67987C21.1318 9.24264 21.6785 8.55018 21.9363 7.72526C21.2699 8.12964 20.5326 8.42472 19.7476 8.58249C19.1185 7.89595 18.2226 7.4668 17.2306 7.4668C15.327 7.4668 13.7847 9.0488 13.7847 11.0007C13.7847 11.2775 13.8146 11.5478 13.8734 11.8063C11.0089 11.6587 8.46932 10.2517 6.76895 8.11349C6.47277 8.6358 6.30263 9.24264 6.30263 9.89041C6.30263 11.117 6.91126 12.1983 7.83549 12.8326C7.27097 12.8137 6.73954 12.6554 6.2748 12.3905C6.27427 12.405 6.27427 12.4206 6.27427 12.4346C6.27427 14.1475 7.46212 15.576 9.03909 15.9007C8.75027 15.981 8.44569 16.0246 8.13114 16.0246C7.90848 16.0246 7.69318 16.0025 7.48313 15.9616C7.92109 17.3648 9.19453 18.3868 10.7022 18.4159C9.52326 19.3636 8.03714 19.9295 6.42236 19.9295C6.14404 19.9295 5.8694 19.9128 5.60001 19.88C7.12499 20.8815 8.93669 21.4668 10.8834 21.4668C17.2227 21.4668 20.6902 16.0816 20.6902 11.411C20.6902 11.2581 20.686 11.1052 20.6797 10.9533C21.3534 10.4553 21.9374 9.83334 22.4 9.12364Z" fill="rgb(255,255,255)" fill-rule="evenodd" />
		</g>
	</mask>
	<rect id="3. Icons/ic_twitter" width="28.000000" height="28.000000" x="0.000000" y="0.000000" fill="rgb(255,255,255)" fill-opacity="0" />
	<g mask="url(#mask_0)">
		<g id="5. Colors/Gray 70" customFrame="url(#clipPath_0)">
			<rect id="5. Colors/Gray 70" width="24.266666" height="24.266666" x="1.866669" y="1.866699" fill="rgb(255,255,255)" fill-opacity="0" />
			<rect id="Gray 70" width="24.266666" height="24.266666" x="1.866669" y="1.866699" fill="rgb(114.75,114.75,114.75)" />
		</g>
	</g>
</svg>
